<svg width="67" height="100" viewBox="0 0 67 100" fill="none" xmlns="http://www.w3.org/2000/svg">
    <title>Figma Logo</title>
    <!-- Bagian Kiri Atas (Merah) -->
    <path d="M33.5 0C14.9918 0 0 15.0183 0 33.3333C0 42.1342 3.70082 50.1192 9.81967 55.8333H33.5V0Z" fill="#F24E1E"/>
    <!-- Bagian Kanan Atas (Oranye) -->
    <path d="M33.5 0V55.8333H57.1803C63.2992 50.1192 67 42.1342 67 33.3333C67 15.0183 52.0082 0 33.5 0Z" fill="#FF7262"/>
    <!-- Bagian Kanan Bawah (Biru) -->
    <path d="M33.5 100C52.0082 100 67 84.9817 67 66.6667C67 57.8658 63.2992 49.8808 57.1803 44.1667H33.5V100Z" fill="#1ABCFE"/>
    <!-- Bagian Kiri Bawah (Hijau) -->
    <path d="M33.5 100V44.1667H9.81967C3.70082 49.8808 0 57.8658 0 66.6667C0 84.9817 14.9918 100 33.5 100Z" fill="#0ACF83"/>
    <!-- Bagian Tengah (Ungu) -->
    <path d="M33.5 33.3333C24.1475 33.3333 16.75 41.75 16.75 50C16.75 58.25 24.1475 66.6667 33.5 66.6667C42.8525 66.6667 50.25 58.25 50.25 50C50.25 41.75 42.8525 33.3333 33.5 33.3333Z" fill="#A259FF"/>
</svg>